<svg width="17" height="14" viewBox="0 0 17 14" fill="none" xmlns="http://www.w3.org/2000/svg">
<path d="M2.87435 0.333313H14.1243C15.5685 0.333313 16.7487 1.46369 16.8284 2.88796L16.8327 3.04165V10.9583C16.8327 12.4025 15.7023 13.5827 14.278 13.6624L14.1243 13.6666H2.87435C1.43016 13.6666 0.249977 12.5363 0.170303 11.112L0.166016 10.9583V3.04165C0.166016 1.59745 1.29639 0.417275 2.72066 0.3376L2.87435 0.333313H14.1243H2.87435ZM15.5827 4.81081L8.79044 8.38639C8.63426 8.46859 8.45196 8.48033 8.28832 8.42161L8.20826 8.38639L1.41602 4.81165V10.9583C1.41602 11.7235 2.00527 12.351 2.75474 12.4118L2.87435 12.4166H14.1243C14.8895 12.4166 15.517 11.8274 15.5778 11.0779L15.5827 10.9583V4.81081ZM14.1243 1.58331H2.87435C2.1092 1.58331 1.48169 2.17257 1.42085 2.92204L1.41602 3.04165V3.39915L8.49935 7.12703L15.5827 3.39831V3.04165C15.5827 2.2765 14.9934 1.64899 14.244 1.58815L14.1243 1.58331Z" fill="#FEC746"/>
</svg>
